# xmcd
#
# Track frame offsets:
#  150
#  13393
#  26599
#  39692
#  52807
#  66088
#  70633
#  82713
#  93587
#  99788
#  107375
#  116129
#  124648
#  136879
#  144371
#  158986
#  171099
#  181843
#  191094
#  199641
#
# Disc length: 2916 seconds
#
# Revision: 0
# Processed by: cddbd v1.5.2PL0 Copyright (c) Steve Scherf et al.
# Submitted via: AltoMP3_Maker 3.0
#
DISCID=020b6214
DTITLE=Arthur Q. Smith - The Trouble with the Truth, disc II
DYEAR=2016
DGENRE=Country
TTITLE0=I Doose What I Choose
TTITLE1=You Can't Hide a Heartache with a Smile
TTITLE2=There's 48 States in the Union
TTITLE3=Little Tow Head
TTITLE4=A Broken Heart Will Mend
TTITLE5=Country Mile
TTITLE6=Black Cat
TTITLE7=Angel of Mine
TTITLE8=The Angels Cried
TTITLE9=Wild Mountain Honey
TTITLE10=All Because of You
TTITLE11=Blue I'll Be Found
TTITLE12=Missing in Action
TTITLE13=A Song for Sale
TTITLE14=Blue Lights, Blue Hearts, Blue Music
TTITLE15=Don Gibson - Open up Your Little Heart for Me
TTITLE16=Carl Butler - Sweet Emilee
TTITLE17=Vicious Lies
TTITLE18=You Can't Insure a House of Dreams
TTITLE19=Marty Stuart - Be Careful Who You Love
EXTD=
EXTT0=
EXTT1=
EXTT2=
EXTT3=
EXTT4=
EXTT5=
EXTT6=
EXTT7=
EXTT8=
EXTT9=
EXTT10=
EXTT11=
EXTT12=
EXTT13=
EXTT14=
EXTT15=
EXTT16=
EXTT17=
EXTT18=
EXTT19=
PLAYORDER=
